<svg width="25" height="25" viewBox="0 0 25 25" fill="none" xmlns="http://www.w3.org/2000/svg">
<mask id="mask0_1710_4908" style="mask-type:alpha" maskUnits="userSpaceOnUse" x="0" y="0" width="25" height="25">
<rect x="0.87471" y="0.452106" width="24" height="24" fill="#D9D9D9"/>
</mask>
<g mask="url(#mask0_1710_4908)">
<path d="M12.8747 22.4521C12.3247 22.4521 11.8539 22.2563 11.4622 21.8646C11.0705 21.4729 10.8747 21.0021 10.8747 20.4521H14.8747C14.8747 21.0021 14.6789 21.4729 14.2872 21.8646C13.8955 22.2563 13.4247 22.4521 12.8747 22.4521ZM5.87471 19.4521C5.59138 19.4521 5.35388 19.3563 5.16221 19.1646C4.97054 18.9729 4.87471 18.7354 4.87471 18.4521C4.87471 18.1688 4.97054 17.9313 5.16221 17.7396C5.35388 17.5479 5.59138 17.4521 5.87471 17.4521H6.87471V10.4521C6.87471 9.06877 7.29138 7.83961 8.12471 6.76461C8.95804 5.68961 10.0414 4.98544 11.3747 4.65211V3.95211C11.3747 3.53544 11.5205 3.18127 11.8122 2.88961C12.1039 2.59794 12.458 2.45211 12.8747 2.45211C13.2914 2.45211 13.6455 2.59794 13.9372 2.88961C14.2289 3.18127 14.3747 3.53544 14.3747 3.95211V4.27711C14.1914 4.64377 14.058 5.01877 13.9747 5.40211C13.8914 5.78544 13.858 6.17711 13.8747 6.57711C13.708 6.54377 13.5455 6.51461 13.3872 6.48961C13.2289 6.46461 13.058 6.45211 12.8747 6.45211C11.7747 6.45211 10.833 6.84377 10.0497 7.62711C9.26638 8.41044 8.87471 9.35211 8.87471 10.4521V17.4521H16.8747V11.0271C17.1747 11.1604 17.4955 11.2646 17.8372 11.3396C18.1789 11.4146 18.5247 11.4521 18.8747 11.4521V17.4521H19.8747C20.158 17.4521 20.3955 17.5479 20.5872 17.7396C20.7789 17.9313 20.8747 18.1688 20.8747 18.4521C20.8747 18.7354 20.7789 18.9729 20.5872 19.1646C20.3955 19.3563 20.158 19.4521 19.8747 19.4521H5.87471ZM18.8747 9.45211C18.0414 9.45211 17.333 9.16044 16.7497 8.57711C16.1664 7.99377 15.8747 7.28544 15.8747 6.45211C15.8747 5.61877 16.1664 4.91044 16.7497 4.32711C17.333 3.74377 18.0414 3.45211 18.8747 3.45211C19.708 3.45211 20.4164 3.74377 20.9997 4.32711C21.583 4.91044 21.8747 5.61877 21.8747 6.45211C21.8747 7.28544 21.583 7.99377 20.9997 8.57711C20.4164 9.16044 19.708 9.45211 18.8747 9.45211Z" fill="#1C1B1F"/>
</g>
</svg>
