<svg width="25" height="25" viewBox="0 0 25 25" fill="none" xmlns="http://www.w3.org/2000/svg">
<mask id="mask0_1710_4926" style="mask-type:alpha" maskUnits="userSpaceOnUse" x="0" y="0" width="25" height="25">
<rect x="0.615311" y="0.398315" width="24" height="24" fill="#D9D9D9"/>
</mask>
<g mask="url(#mask0_1710_4926)">
<path d="M12.6153 12.3983C11.5153 12.3983 10.5736 12.0066 9.79031 11.2233C9.00698 10.44 8.61531 9.49832 8.61531 8.39832C8.61531 7.29832 9.00698 6.35665 9.79031 5.57332C10.5736 4.78998 11.5153 4.39832 12.6153 4.39832C13.7153 4.39832 14.657 4.78998 15.4403 5.57332C16.2236 6.35665 16.6153 7.29832 16.6153 8.39832C16.6153 9.49832 16.2236 10.44 15.4403 11.2233C14.657 12.0066 13.7153 12.3983 12.6153 12.3983ZM4.61531 18.3983V17.5983C4.61531 17.0316 4.76114 16.5108 5.05281 16.0358C5.34448 15.5608 5.73198 15.1983 6.21531 14.9483C7.24864 14.4316 8.29864 14.0441 9.36531 13.7858C10.432 13.5275 11.5153 13.3983 12.6153 13.3983C13.7153 13.3983 14.7986 13.5275 15.8653 13.7858C16.932 14.0441 17.982 14.4316 19.0153 14.9483C19.4986 15.1983 19.8861 15.5608 20.1778 16.0358C20.4695 16.5108 20.6153 17.0316 20.6153 17.5983V18.3983C20.6153 18.9483 20.4195 19.4191 20.0278 19.8108C19.6361 20.2025 19.1653 20.3983 18.6153 20.3983H6.61531C6.06531 20.3983 5.59448 20.2025 5.20281 19.8108C4.81114 19.4191 4.61531 18.9483 4.61531 18.3983ZM6.61531 18.3983H18.6153V17.5983C18.6153 17.415 18.5695 17.2483 18.4778 17.0983C18.3861 16.9483 18.2653 16.8316 18.1153 16.7483C17.2153 16.2983 16.307 15.9608 15.3903 15.7358C14.4736 15.5108 13.5486 15.3983 12.6153 15.3983C11.682 15.3983 10.757 15.5108 9.84031 15.7358C8.92364 15.9608 8.01531 16.2983 7.11531 16.7483C6.96531 16.8316 6.84448 16.9483 6.75281 17.0983C6.66114 17.2483 6.61531 17.415 6.61531 17.5983V18.3983ZM12.6153 10.3983C13.1653 10.3983 13.6361 10.2025 14.0278 9.81082C14.4195 9.41915 14.6153 8.94832 14.6153 8.39832C14.6153 7.84832 14.4195 7.37748 14.0278 6.98582C13.6361 6.59415 13.1653 6.39832 12.6153 6.39832C12.0653 6.39832 11.5945 6.59415 11.2028 6.98582C10.8111 7.37748 10.6153 7.84832 10.6153 8.39832C10.6153 8.94832 10.8111 9.41915 11.2028 9.81082C11.5945 10.2025 12.0653 10.3983 12.6153 10.3983Z" fill="#1C1B1F"/>
</g>
</svg>
