<svg width="20" height="20" viewBox="0 0 20 20" fill="none" xmlns="http://www.w3.org/2000/svg">
<mask id="mask0_1710_4944" style="mask-type:alpha" maskUnits="userSpaceOnUse" x="0" y="0" width="20" height="20">
<rect width="20" height="20" fill="#D9D9D9"/>
</mask>
<g mask="url(#mask0_1710_4944)">
<path d="M13.2708 11.1458L11.9792 9.85417C12.0347 9.32639 11.875 8.87153 11.5 8.48959C11.125 8.10764 10.6736 7.94445 10.1458 8.00001L8.85417 6.70834C9.03472 6.63889 9.22222 6.58681 9.41667 6.55209C9.61111 6.51737 9.80556 6.50001 10 6.50001C10.9722 6.50001 11.7986 6.84028 12.4792 7.52084C13.1597 8.20139 13.5 9.02778 13.5 10C13.5 10.1944 13.4826 10.3889 13.4479 10.5833C13.4132 10.7778 13.3542 10.9653 13.2708 11.1458ZM16.0417 13.9167L14.9583 12.8333C15.4583 12.4444 15.9132 12.0174 16.3229 11.5521C16.7326 11.0868 17.0764 10.5694 17.3542 10C16.6736 8.59723 15.6701 7.49653 14.3438 6.69792C13.0174 5.89931 11.5694 5.50001 10 5.50001C9.63889 5.50001 9.28472 5.52084 8.9375 5.56251C8.59028 5.60417 8.25 5.67362 7.91667 5.77084L6.70833 4.56251C7.23611 4.35417 7.77431 4.20834 8.32292 4.12501C8.87153 4.04167 9.43056 4.00001 10 4.00001C11.9861 4.00001 13.8021 4.5382 15.4479 5.61459C17.0938 6.69098 18.2778 8.15278 19 10C18.6944 10.7917 18.2882 11.5104 17.7812 12.1563C17.2743 12.8021 16.6944 13.3889 16.0417 13.9167ZM16 18.125L13.2917 15.4167C12.7639 15.6111 12.2257 15.7569 11.6771 15.8542C11.1285 15.9514 10.5694 16 10 16C8.01389 16 6.19792 15.4618 4.55208 14.3854C2.90625 13.309 1.72222 11.8472 1 10C1.30556 9.20834 1.70833 8.48612 2.20833 7.83334C2.70833 7.18056 3.29167 6.59028 3.95833 6.06251L1.875 3.97917L2.9375 2.91667L17.0625 17.0625L16 18.125ZM5.02083 7.14584C4.53472 7.53473 4.08333 7.96181 3.66667 8.42709C3.25 8.89237 2.90972 9.41667 2.64583 10C3.32639 11.4028 4.32986 12.5035 5.65625 13.3021C6.98264 14.1007 8.43056 14.5 10 14.5C10.3611 14.5 10.7153 14.4757 11.0625 14.4271C11.4097 14.3785 11.7569 14.3125 12.1042 14.2292L11.1667 13.2917C10.9722 13.3611 10.7778 13.4132 10.5833 13.4479C10.3889 13.4826 10.1944 13.5 10 13.5C9.02778 13.5 8.20139 13.1597 7.52083 12.4792C6.84028 11.7986 6.5 10.9722 6.5 10C6.5 9.80556 6.52431 9.61112 6.57292 9.41667C6.62153 9.22223 6.66667 9.02778 6.70833 8.83334L5.02083 7.14584Z" fill="#1C1B1F"/>
</g>
</svg>
